<mxfile host="app.diagrams.net" modified="2024-04-15T10:17:10.395Z" agent="Mozilla/5.0 (Windows NT 10.0; Win64; x64) AppleWebKit/537.36 (KHTML, like Gecko) Chrome/121.0.0.0 Safari/537.36 OPR/107.0.0.0" etag="3xo9WiZtMM3ad6PGF8h_" version="24.2.5" type="device">
  <diagram name="Page-1" id="X4rocvD3isw1gyk_n6eG">
    <mxGraphModel dx="1972" dy="1030" grid="1" gridSize="10" guides="1" tooltips="1" connect="1" arrows="1" fold="1" page="1" pageScale="1" pageWidth="850" pageHeight="1100" math="0" shadow="0">
      <root>
        <mxCell id="0" />
        <mxCell id="1" parent="0" />
        <mxCell id="WPvFwD9i1PkFsYHygqBO-31" style="edgeStyle=orthogonalEdgeStyle;rounded=0;orthogonalLoop=1;jettySize=auto;html=1;entryX=0;entryY=0.5;entryDx=0;entryDy=0;exitX=0;exitY=0.5;exitDx=0;exitDy=0;" edge="1" parent="1" source="WPvFwD9i1PkFsYHygqBO-1" target="WPvFwD9i1PkFsYHygqBO-24">
          <mxGeometry relative="1" as="geometry" />
        </mxCell>
        <mxCell id="WPvFwD9i1PkFsYHygqBO-32" style="edgeStyle=orthogonalEdgeStyle;rounded=0;orthogonalLoop=1;jettySize=auto;html=1;entryX=0;entryY=0.5;entryDx=0;entryDy=0;exitX=0;exitY=0.5;exitDx=0;exitDy=0;" edge="1" parent="1" source="WPvFwD9i1PkFsYHygqBO-1" target="WPvFwD9i1PkFsYHygqBO-25">
          <mxGeometry relative="1" as="geometry" />
        </mxCell>
        <mxCell id="WPvFwD9i1PkFsYHygqBO-34" style="edgeStyle=orthogonalEdgeStyle;rounded=0;orthogonalLoop=1;jettySize=auto;html=1;entryX=0;entryY=0.5;entryDx=0;entryDy=0;exitX=0;exitY=0.5;exitDx=0;exitDy=0;" edge="1" parent="1" source="WPvFwD9i1PkFsYHygqBO-1" target="WPvFwD9i1PkFsYHygqBO-26">
          <mxGeometry relative="1" as="geometry" />
        </mxCell>
        <mxCell id="WPvFwD9i1PkFsYHygqBO-36" style="edgeStyle=orthogonalEdgeStyle;rounded=0;orthogonalLoop=1;jettySize=auto;html=1;entryX=0;entryY=0.5;entryDx=0;entryDy=0;exitX=0;exitY=0.5;exitDx=0;exitDy=0;" edge="1" parent="1" source="WPvFwD9i1PkFsYHygqBO-1" target="WPvFwD9i1PkFsYHygqBO-29">
          <mxGeometry relative="1" as="geometry" />
        </mxCell>
        <mxCell id="WPvFwD9i1PkFsYHygqBO-37" style="edgeStyle=orthogonalEdgeStyle;rounded=0;orthogonalLoop=1;jettySize=auto;html=1;entryX=0;entryY=0.5;entryDx=0;entryDy=0;exitX=0;exitY=0.5;exitDx=0;exitDy=0;" edge="1" parent="1" source="WPvFwD9i1PkFsYHygqBO-1" target="WPvFwD9i1PkFsYHygqBO-30">
          <mxGeometry relative="1" as="geometry" />
        </mxCell>
        <mxCell id="WPvFwD9i1PkFsYHygqBO-1" value="ADMIN" style="rounded=0;whiteSpace=wrap;html=1;" vertex="1" parent="1">
          <mxGeometry x="179.92000000000002" y="480" width="120" height="40" as="geometry" />
        </mxCell>
        <mxCell id="WPvFwD9i1PkFsYHygqBO-2" value="MANAGE" style="rhombus;whiteSpace=wrap;html=1;" vertex="1" parent="1">
          <mxGeometry x="374.92" y="445" width="110" height="110" as="geometry" />
        </mxCell>
        <mxCell id="WPvFwD9i1PkFsYHygqBO-3" value="VISITS" style="rhombus;whiteSpace=wrap;html=1;" vertex="1" parent="1">
          <mxGeometry x="574.92" y="445" width="110" height="110" as="geometry" />
        </mxCell>
        <mxCell id="WPvFwD9i1PkFsYHygqBO-53" style="edgeStyle=orthogonalEdgeStyle;rounded=0;orthogonalLoop=1;jettySize=auto;html=1;entryX=0;entryY=0.5;entryDx=0;entryDy=0;exitX=0;exitY=0.5;exitDx=0;exitDy=0;" edge="1" parent="1" source="WPvFwD9i1PkFsYHygqBO-4" target="WPvFwD9i1PkFsYHygqBO-38">
          <mxGeometry relative="1" as="geometry" />
        </mxCell>
        <mxCell id="WPvFwD9i1PkFsYHygqBO-54" style="edgeStyle=orthogonalEdgeStyle;rounded=0;orthogonalLoop=1;jettySize=auto;html=1;entryX=0;entryY=0.5;entryDx=0;entryDy=0;exitX=0;exitY=0.5;exitDx=0;exitDy=0;" edge="1" parent="1" source="WPvFwD9i1PkFsYHygqBO-4" target="WPvFwD9i1PkFsYHygqBO-39">
          <mxGeometry relative="1" as="geometry" />
        </mxCell>
        <mxCell id="WPvFwD9i1PkFsYHygqBO-55" style="edgeStyle=orthogonalEdgeStyle;rounded=0;orthogonalLoop=1;jettySize=auto;html=1;entryX=0;entryY=0.5;entryDx=0;entryDy=0;exitX=0;exitY=0.5;exitDx=0;exitDy=0;" edge="1" parent="1" source="WPvFwD9i1PkFsYHygqBO-4" target="WPvFwD9i1PkFsYHygqBO-40">
          <mxGeometry relative="1" as="geometry" />
        </mxCell>
        <mxCell id="WPvFwD9i1PkFsYHygqBO-56" style="edgeStyle=orthogonalEdgeStyle;rounded=0;orthogonalLoop=1;jettySize=auto;html=1;entryX=0;entryY=0.5;entryDx=0;entryDy=0;exitX=0;exitY=0.5;exitDx=0;exitDy=0;" edge="1" parent="1" source="WPvFwD9i1PkFsYHygqBO-4" target="WPvFwD9i1PkFsYHygqBO-41">
          <mxGeometry relative="1" as="geometry" />
        </mxCell>
        <mxCell id="WPvFwD9i1PkFsYHygqBO-57" style="edgeStyle=orthogonalEdgeStyle;rounded=0;orthogonalLoop=1;jettySize=auto;html=1;entryX=0;entryY=0.5;entryDx=0;entryDy=0;exitX=0;exitY=0.5;exitDx=0;exitDy=0;" edge="1" parent="1" source="WPvFwD9i1PkFsYHygqBO-4" target="WPvFwD9i1PkFsYHygqBO-42">
          <mxGeometry relative="1" as="geometry">
            <mxPoint x="509.92" y="840" as="targetPoint" />
          </mxGeometry>
        </mxCell>
        <mxCell id="WPvFwD9i1PkFsYHygqBO-4" value="PERSON DEPRIVED OF LIBERTY" style="rounded=0;whiteSpace=wrap;html=1;" vertex="1" parent="1">
          <mxGeometry x="569.92" y="600" width="120" height="60" as="geometry" />
        </mxCell>
        <mxCell id="WPvFwD9i1PkFsYHygqBO-63" style="edgeStyle=orthogonalEdgeStyle;rounded=0;orthogonalLoop=1;jettySize=auto;html=1;entryX=0;entryY=0.5;entryDx=0;entryDy=0;exitX=0;exitY=0.5;exitDx=0;exitDy=0;" edge="1" parent="1" source="WPvFwD9i1PkFsYHygqBO-5" target="WPvFwD9i1PkFsYHygqBO-62">
          <mxGeometry relative="1" as="geometry" />
        </mxCell>
        <mxCell id="WPvFwD9i1PkFsYHygqBO-64" style="edgeStyle=orthogonalEdgeStyle;rounded=0;orthogonalLoop=1;jettySize=auto;html=1;entryX=0;entryY=0.5;entryDx=0;entryDy=0;exitX=0;exitY=0.5;exitDx=0;exitDy=0;" edge="1" parent="1" source="WPvFwD9i1PkFsYHygqBO-5" target="WPvFwD9i1PkFsYHygqBO-61">
          <mxGeometry relative="1" as="geometry" />
        </mxCell>
        <mxCell id="WPvFwD9i1PkFsYHygqBO-65" style="edgeStyle=orthogonalEdgeStyle;rounded=0;orthogonalLoop=1;jettySize=auto;html=1;entryX=0;entryY=0.5;entryDx=0;entryDy=0;exitX=0;exitY=0.5;exitDx=0;exitDy=0;" edge="1" parent="1" source="WPvFwD9i1PkFsYHygqBO-5" target="WPvFwD9i1PkFsYHygqBO-60">
          <mxGeometry relative="1" as="geometry" />
        </mxCell>
        <mxCell id="WPvFwD9i1PkFsYHygqBO-66" style="edgeStyle=orthogonalEdgeStyle;rounded=0;orthogonalLoop=1;jettySize=auto;html=1;entryX=0;entryY=0.5;entryDx=0;entryDy=0;exitX=0;exitY=0.5;exitDx=0;exitDy=0;" edge="1" parent="1" source="WPvFwD9i1PkFsYHygqBO-5" target="WPvFwD9i1PkFsYHygqBO-59">
          <mxGeometry relative="1" as="geometry">
            <mxPoint x="530" y="249.99999999999994" as="targetPoint" />
          </mxGeometry>
        </mxCell>
        <mxCell id="WPvFwD9i1PkFsYHygqBO-67" style="edgeStyle=orthogonalEdgeStyle;rounded=0;orthogonalLoop=1;jettySize=auto;html=1;entryX=0;entryY=0.5;entryDx=0;entryDy=0;exitX=0;exitY=0.5;exitDx=0;exitDy=0;" edge="1" parent="1" source="WPvFwD9i1PkFsYHygqBO-5" target="WPvFwD9i1PkFsYHygqBO-58">
          <mxGeometry relative="1" as="geometry" />
        </mxCell>
        <mxCell id="WPvFwD9i1PkFsYHygqBO-5" value="USERS(VISITORS)" style="rounded=0;whiteSpace=wrap;html=1;" vertex="1" parent="1">
          <mxGeometry x="569.92" y="360" width="120" height="40" as="geometry" />
        </mxCell>
        <mxCell id="WPvFwD9i1PkFsYHygqBO-6" value="" style="endArrow=none;html=1;rounded=0;entryX=0;entryY=0.5;entryDx=0;entryDy=0;exitX=1;exitY=0.5;exitDx=0;exitDy=0;" edge="1" parent="1" source="WPvFwD9i1PkFsYHygqBO-1" target="WPvFwD9i1PkFsYHygqBO-2">
          <mxGeometry width="50" height="50" relative="1" as="geometry">
            <mxPoint x="319.92" y="530" as="sourcePoint" />
            <mxPoint x="369.92" y="480" as="targetPoint" />
          </mxGeometry>
        </mxCell>
        <mxCell id="WPvFwD9i1PkFsYHygqBO-7" value="" style="endArrow=none;html=1;rounded=0;entryX=0.074;entryY=0.404;entryDx=0;entryDy=0;exitX=1;exitY=0.5;exitDx=0;exitDy=0;entryPerimeter=0;" edge="1" parent="1" target="WPvFwD9i1PkFsYHygqBO-2">
          <mxGeometry width="50" height="50" relative="1" as="geometry">
            <mxPoint x="299.92" y="490" as="sourcePoint" />
            <mxPoint x="374.92" y="490" as="targetPoint" />
          </mxGeometry>
        </mxCell>
        <mxCell id="WPvFwD9i1PkFsYHygqBO-8" value="" style="endArrow=none;html=1;rounded=0;entryX=0;entryY=0.25;entryDx=0;entryDy=0;exitX=0.635;exitY=0.127;exitDx=0;exitDy=0;exitPerimeter=0;" edge="1" parent="1" source="WPvFwD9i1PkFsYHygqBO-2" target="WPvFwD9i1PkFsYHygqBO-5">
          <mxGeometry width="50" height="50" relative="1" as="geometry">
            <mxPoint x="469.92" y="441" as="sourcePoint" />
            <mxPoint x="552.92" y="440" as="targetPoint" />
          </mxGeometry>
        </mxCell>
        <mxCell id="WPvFwD9i1PkFsYHygqBO-9" value="" style="endArrow=none;html=1;rounded=0;entryX=0.007;entryY=0.572;entryDx=0;entryDy=0;exitX=0.704;exitY=0.198;exitDx=0;exitDy=0;exitPerimeter=0;entryPerimeter=0;" edge="1" parent="1" source="WPvFwD9i1PkFsYHygqBO-2" target="WPvFwD9i1PkFsYHygqBO-5">
          <mxGeometry width="50" height="50" relative="1" as="geometry">
            <mxPoint x="449.92" y="469" as="sourcePoint" />
            <mxPoint x="574.92" y="380" as="targetPoint" />
          </mxGeometry>
        </mxCell>
        <mxCell id="WPvFwD9i1PkFsYHygqBO-10" value="" style="endArrow=none;html=1;rounded=0;entryX=0;entryY=0.75;entryDx=0;entryDy=0;exitX=0.645;exitY=0.879;exitDx=0;exitDy=0;exitPerimeter=0;" edge="1" parent="1" source="WPvFwD9i1PkFsYHygqBO-2" target="WPvFwD9i1PkFsYHygqBO-4">
          <mxGeometry width="50" height="50" relative="1" as="geometry">
            <mxPoint x="450.92" y="639" as="sourcePoint" />
            <mxPoint x="569.92" y="555" as="targetPoint" />
          </mxGeometry>
        </mxCell>
        <mxCell id="WPvFwD9i1PkFsYHygqBO-11" value="" style="endArrow=none;html=1;rounded=0;entryX=-0.012;entryY=0.558;entryDx=0;entryDy=0;exitX=0.7;exitY=0.812;exitDx=0;exitDy=0;exitPerimeter=0;entryPerimeter=0;" edge="1" parent="1" source="WPvFwD9i1PkFsYHygqBO-2" target="WPvFwD9i1PkFsYHygqBO-4">
          <mxGeometry width="50" height="50" relative="1" as="geometry">
            <mxPoint x="451.42" y="537.5" as="sourcePoint" />
            <mxPoint x="563.92" y="633" as="targetPoint" />
          </mxGeometry>
        </mxCell>
        <mxCell id="WPvFwD9i1PkFsYHygqBO-13" value="" style="endArrow=none;html=1;rounded=0;entryX=0.5;entryY=1;entryDx=0;entryDy=0;exitX=0.5;exitY=0;exitDx=0;exitDy=0;" edge="1" parent="1" source="WPvFwD9i1PkFsYHygqBO-3" target="WPvFwD9i1PkFsYHygqBO-5">
          <mxGeometry width="50" height="50" relative="1" as="geometry">
            <mxPoint x="499.92" y="504" as="sourcePoint" />
            <mxPoint x="618.92" y="420" as="targetPoint" />
          </mxGeometry>
        </mxCell>
        <mxCell id="WPvFwD9i1PkFsYHygqBO-14" value="" style="endArrow=none;html=1;rounded=0;entryX=0.5;entryY=1;entryDx=0;entryDy=0;" edge="1" parent="1" target="WPvFwD9i1PkFsYHygqBO-3">
          <mxGeometry width="50" height="50" relative="1" as="geometry">
            <mxPoint x="629.92" y="600" as="sourcePoint" />
            <mxPoint x="629.67" y="555" as="targetPoint" />
          </mxGeometry>
        </mxCell>
        <mxCell id="WPvFwD9i1PkFsYHygqBO-15" value="1" style="text;html=1;align=center;verticalAlign=middle;whiteSpace=wrap;rounded=0;" vertex="1" parent="1">
          <mxGeometry x="309.92" y="460" width="60" height="30" as="geometry" />
        </mxCell>
        <mxCell id="WPvFwD9i1PkFsYHygqBO-19" value="M" style="text;html=1;align=center;verticalAlign=middle;whiteSpace=wrap;rounded=0;rotation=-30;" vertex="1" parent="1">
          <mxGeometry x="459.92" y="390" width="60" height="30" as="geometry" />
        </mxCell>
        <mxCell id="WPvFwD9i1PkFsYHygqBO-20" value="M" style="text;html=1;align=center;verticalAlign=middle;whiteSpace=wrap;rounded=0;rotation=40;" vertex="1" parent="1">
          <mxGeometry x="484.92" y="555" width="60" height="30" as="geometry" />
        </mxCell>
        <mxCell id="WPvFwD9i1PkFsYHygqBO-22" value="N" style="text;html=1;align=center;verticalAlign=middle;whiteSpace=wrap;rounded=0;rotation=0;" vertex="1" parent="1">
          <mxGeometry x="609.92" y="410" width="60" height="30" as="geometry" />
        </mxCell>
        <mxCell id="WPvFwD9i1PkFsYHygqBO-23" value="M" style="text;html=1;align=center;verticalAlign=middle;whiteSpace=wrap;rounded=0;rotation=0;" vertex="1" parent="1">
          <mxGeometry x="609.92" y="560" width="60" height="30" as="geometry" />
        </mxCell>
        <mxCell id="WPvFwD9i1PkFsYHygqBO-24" value="&lt;div&gt;Admin_ID&lt;/div&gt;&lt;div&gt;K.A.&lt;/div&gt;" style="ellipse;whiteSpace=wrap;html=1;" vertex="1" parent="1">
          <mxGeometry x="189.92000000000002" y="530" width="80" height="40" as="geometry" />
        </mxCell>
        <mxCell id="WPvFwD9i1PkFsYHygqBO-25" value="Username&lt;div&gt;S.A.&lt;/div&gt;" style="ellipse;whiteSpace=wrap;html=1;" vertex="1" parent="1">
          <mxGeometry x="189.92000000000002" y="580" width="80" height="40" as="geometry" />
        </mxCell>
        <mxCell id="WPvFwD9i1PkFsYHygqBO-26" value="Password&lt;div&gt;S.A.&lt;/div&gt;" style="ellipse;whiteSpace=wrap;html=1;" vertex="1" parent="1">
          <mxGeometry x="189.92000000000002" y="630" width="80" height="40" as="geometry" />
        </mxCell>
        <mxCell id="WPvFwD9i1PkFsYHygqBO-29" value="Roles&lt;div&gt;C.A.&lt;/div&gt;" style="ellipse;whiteSpace=wrap;html=1;" vertex="1" parent="1">
          <mxGeometry x="189.92000000000002" y="680" width="80" height="40" as="geometry" />
        </mxCell>
        <mxCell id="WPvFwD9i1PkFsYHygqBO-30" value="Email&lt;div&gt;S.V.A.&lt;/div&gt;" style="ellipse;whiteSpace=wrap;html=1;" vertex="1" parent="1">
          <mxGeometry x="189.92000000000002" y="730" width="80" height="40" as="geometry" />
        </mxCell>
        <mxCell id="WPvFwD9i1PkFsYHygqBO-38" value="NAME&lt;div&gt;C.A.&lt;/div&gt;" style="ellipse;whiteSpace=wrap;html=1;" vertex="1" parent="1">
          <mxGeometry x="579.92" y="680" width="80" height="40" as="geometry" />
        </mxCell>
        <mxCell id="WPvFwD9i1PkFsYHygqBO-39" value="BIRTHDAY&lt;div&gt;M.V.A.&lt;/div&gt;" style="ellipse;whiteSpace=wrap;html=1;" vertex="1" parent="1">
          <mxGeometry x="579.92" y="730" width="80" height="40" as="geometry" />
        </mxCell>
        <mxCell id="WPvFwD9i1PkFsYHygqBO-40" value="CRIME&lt;div&gt;M.V.A.&lt;/div&gt;" style="ellipse;whiteSpace=wrap;html=1;" vertex="1" parent="1">
          <mxGeometry x="579.92" y="780" width="80" height="40" as="geometry" />
        </mxCell>
        <mxCell id="WPvFwD9i1PkFsYHygqBO-41" value="SENTENCE&lt;div&gt;C.A.&lt;/div&gt;" style="ellipse;whiteSpace=wrap;html=1;" vertex="1" parent="1">
          <mxGeometry x="579.92" y="830" width="80" height="40" as="geometry" />
        </mxCell>
        <mxCell id="WPvFwD9i1PkFsYHygqBO-42" value="PDL ID#&lt;div&gt;K.A.&lt;/div&gt;" style="ellipse;whiteSpace=wrap;html=1;" vertex="1" parent="1">
          <mxGeometry x="579.92" y="880" width="80" height="40" as="geometry" />
        </mxCell>
        <mxCell id="WPvFwD9i1PkFsYHygqBO-58" value="NAME&lt;div&gt;C.A.&lt;/div&gt;" style="ellipse;whiteSpace=wrap;html=1;" vertex="1" parent="1">
          <mxGeometry x="579.92" y="110" width="80" height="40" as="geometry" />
        </mxCell>
        <mxCell id="WPvFwD9i1PkFsYHygqBO-59" value="GENDER&lt;div&gt;S.A.&lt;/div&gt;" style="ellipse;whiteSpace=wrap;html=1;" vertex="1" parent="1">
          <mxGeometry x="579.92" y="160" width="80" height="40" as="geometry" />
        </mxCell>
        <mxCell id="WPvFwD9i1PkFsYHygqBO-60" value="PASSWORD&lt;div&gt;S.A.&lt;/div&gt;" style="ellipse;whiteSpace=wrap;html=1;" vertex="1" parent="1">
          <mxGeometry x="579.92" y="210" width="80" height="40" as="geometry" />
        </mxCell>
        <mxCell id="WPvFwD9i1PkFsYHygqBO-61" value="USERNAME&lt;div&gt;S.A.&lt;/div&gt;" style="ellipse;whiteSpace=wrap;html=1;" vertex="1" parent="1">
          <mxGeometry x="579.92" y="260" width="80" height="40" as="geometry" />
        </mxCell>
        <mxCell id="WPvFwD9i1PkFsYHygqBO-62" value="USER ID&lt;div&gt;K.A.&lt;/div&gt;" style="ellipse;whiteSpace=wrap;html=1;" vertex="1" parent="1">
          <mxGeometry x="579.92" y="310" width="80" height="40" as="geometry" />
        </mxCell>
        <mxCell id="WPvFwD9i1PkFsYHygqBO-68" value="DELA CRUZ, JUSTINE NORIE B.&lt;span style=&quot;white-space: pre;&quot;&gt;&#x9;&lt;/span&gt;&lt;span style=&quot;white-space: pre;&quot;&gt;&#x9;&lt;/span&gt;BSIT - 2B" style="text;html=1;align=center;verticalAlign=middle;whiteSpace=wrap;rounded=0;" vertex="1" parent="1">
          <mxGeometry x="79.92" y="160" width="320" height="40" as="geometry" />
        </mxCell>
        <mxCell id="WPvFwD9i1PkFsYHygqBO-69" value="PDL MANAGEMENT SYSTEM" style="text;html=1;align=center;verticalAlign=middle;whiteSpace=wrap;rounded=0;fontSize=23;" vertex="1" parent="1">
          <mxGeometry x="265" y="30" width="320" height="40" as="geometry" />
        </mxCell>
      </root>
    </mxGraphModel>
  </diagram>
</mxfile>
